<svg width="13" height="12" viewBox="0 0 13 12" fill="none" xmlns="http://www.w3.org/2000/svg">
<g id="Icon/arrow-narrow-left">
<path id="Vector" fill-rule="evenodd" clip-rule="evenodd" d="M5.12427 8.82464C5.01175 8.93712 4.85917 9.00031 4.70007 9.00031C4.54097 9.00031 4.38838 8.93712 4.27587 8.82464L1.87587 6.42464C1.76338 6.31212 1.7002 6.15954 1.7002 6.00044C1.7002 5.84134 1.76338 5.68876 1.87587 5.57624L4.27587 3.17624C4.38903 3.06695 4.54059 3.00647 4.69791 3.00784C4.85523 3.0092 5.00571 3.0723 5.11696 3.18355C5.2282 3.29479 5.2913 3.44528 5.29267 3.6026C5.29404 3.75992 5.23356 3.91148 5.12427 4.02464L3.74847 5.40044H10.7001C10.8592 5.40044 11.0118 5.46365 11.1243 5.57618C11.2369 5.6887 11.3001 5.84131 11.3001 6.00044C11.3001 6.15957 11.2369 6.31218 11.1243 6.4247C11.0118 6.53723 10.8592 6.60044 10.7001 6.60044H3.74847L5.12427 7.97624C5.23675 8.08876 5.29994 8.24134 5.29994 8.40044C5.29994 8.55954 5.23675 8.71212 5.12427 8.82464Z" fill="#616D8D"/>
</g>
</svg>
