<svg width="19" height="18" viewBox="0 0 19 18" fill="none" xmlns="http://www.w3.org/2000/svg">
<g id="Icon/arrow-narrow-down">
<path id="Vector" fill-rule="evenodd" clip-rule="evenodd" d="M13.7362 10.9348C13.9051 11.0931 14 11.3076 14 11.5314C14 11.7551 13.9051 11.9697 13.7362 12.1279L10.1317 15.503C9.96267 15.6611 9.73351 15.75 9.49456 15.75C9.25561 15.75 9.02645 15.6611 8.85746 15.503L5.25296 12.1279C5.08881 11.9688 4.99798 11.7556 5.00003 11.5344C5.00209 11.3132 5.09686 11.1016 5.26393 10.9451C5.43101 10.7887 5.65702 10.6999 5.8933 10.698C6.12957 10.6961 6.3572 10.7811 6.52715 10.9348L8.59343 12.8696L8.59343 3.09376C8.59343 2.86998 8.68837 2.65537 8.85737 2.49713C9.02636 2.3389 9.25557 2.25 9.49456 2.25C9.73355 2.25 9.96276 2.3389 10.1318 2.49713C10.3007 2.65537 10.3957 2.86998 10.3957 3.09376L10.3957 12.8696L12.462 10.9348C12.631 10.7767 12.8601 10.6878 13.0991 10.6878C13.338 10.6878 13.5672 10.7767 13.7362 10.9348Z" fill="#616D8D"/>
</g>
</svg>
