<svg width="16" height="16" viewBox="0 0 16 16" fill="none" xmlns="http://www.w3.org/2000/svg">
<g id="Frame">
<g id="Group">
<path id="Vector" d="M14.2788 3.68526H11.2V2.49738C11.2 1.98829 10.7879 1.57617 10.2788 1.57617H5.64849C5.1394 1.57617 4.72728 1.98829 4.72728 2.49738V3.68526H1.72122C0.896977 3.68526 0.242432 4.36405 0.242432 5.16405V6.01254L7.12728 9.21254C7.17577 8.75193 7.5394 8.38829 8.00001 8.38829C8.46061 8.38829 8.84849 8.75193 8.87274 9.21254L15.7576 6.01254V5.16405C15.7576 4.36405 15.103 3.68526 14.2788 3.68526ZM10.7152 3.68526H5.21213V2.49738C5.21213 2.25496 5.40607 2.06102 5.64849 2.06102H10.2788C10.5212 2.06102 10.7152 2.25496 10.7152 2.49738V3.68526Z" fill="#4785FF"/>
<path id="Vector_2" d="M8.41213 10.3276V9.28517C8.41213 9.06699 8.24244 8.87305 8.00001 8.87305C7.75759 8.87305 7.58789 9.04274 7.58789 9.28517V10.3276C7.58789 10.5458 7.75759 10.7397 8.00001 10.7397C8.24244 10.7397 8.41213 10.5458 8.41213 10.3276Z" fill="#4785FF"/>
<path id="Vector_3" d="M8.89698 10.3267C8.89698 10.8116 8.5091 11.2237 8.00001 11.2237C7.49092 11.2237 7.10304 10.8358 7.10304 10.3267V9.74492L0.242432 6.54492V12.9449C0.242432 13.7692 0.896977 14.4237 1.72122 14.4237H14.2788C15.103 14.4237 15.7576 13.7692 15.7576 12.9449V6.54492L8.89698 9.74492V10.3267Z" fill="#4785FF"/>
</g>
</g>
</svg>
