<svg width="353" height="21" viewBox="0 0 353 21" fill="none" xmlns="http://www.w3.org/2000/svg">
  <path
    d="M0 10.4437L0.765217 10.568L1.53043 9.69819L2.29565 9.82245L3.06087 10.9408L3.82609 11.065L4.5913 7.58577L5.35652 7.21299L6.12174 7.08873L6.88696 7.21299L8.41739 6.96447L9.18261 7.33725L9.94783 5.97039L10.713 5.72187L11.4783 5.84613L12.2435 4.23076L13.0087 2.73964L13.7739 5.72187L14.5391 6.46743L15.3043 4.97631L16.0696 5.72187L16.8348 8.45559L17.6 9.94671L18.3652 9.82245L19.1304 10.4437L19.8957 8.95263L20.6609 11.065L21.4261 9.82245L22.1913 11.065L22.9565 10.9408L23.7217 9.94671L24.487 9.82245L25.2522 8.08281L26.0174 5.22483L26.7826 4.85205L27.5478 4.72779L28.313 4.85205L29.0783 3.73372L29.8435 3.85798L30.6087 3.11242L31.3739 5.10057L32.1391 3.23668L32.9043 1.49704L33.6696 1.37278L34.4348 2.8639L35.9652 3.11242L36.7304 3.98224L37.4957 5.47335L38.2609 6.09465L39.0261 5.72187L39.7913 6.96447L40.5565 6.71595H41.3217L42.087 7.21299L42.8522 6.34317L43.6174 6.46743L44.3826 4.23076L45.1478 3.60946L45.913 3.4852L46.6783 2.73964L47.4435 2.61538L48.2087 2.73964L48.9739 4.47927L49.7391 3.98224L50.5043 2.61538L51.2696 2.73964L52.0348 2.61538L52.8 2.11834L53.5652 1.99408L54.3304 2.11834L55.0957 3.11242L55.8609 3.23668H56.6261L57.3913 2.8639L58.1565 2.73964L58.9217 3.36094L59.687 1L60.4522 3.4852L61.2174 3.36094L61.9826 3.4852L62.7478 1.99408L63.513 2.11834L64.2783 1.99408L65.0435 2.11834L65.8087 1.99408L66.5739 2.8639L67.3391 4.23076L68.1043 2.36686L68.8696 4.60354L69.6348 6.71595L70.4 6.59169L71.1652 6.84021L71.9304 4.72779L72.6956 3.36094L73.4609 3.23668L74.2261 3.36094L74.9913 3.23668L75.7565 5.59761L76.5217 7.71003L77.287 8.95263L78.0522 3.23668L78.8174 3.73372L79.5826 3.60946L80.3478 3.11242L81.113 2.98816L81.8783 3.98224H82.6435L83.4087 4.1065L84.1739 3.98224L84.9391 2.98816L85.7043 2.8639L86.4696 1.49704L87.2348 2.36686L88 2.49112L88.7652 1.24852L89.5304 1.49704L90.2956 3.98224L91.0609 4.1065L91.8261 3.98224L92.5913 3.11251L93.3565 3.98233L94.1217 3.85807L94.887 2.73973L95.6522 2.61547L96.4174 6.09474L97.1826 6.46752L97.9478 6.59178L98.713 6.46752L100.243 6.71604L101.009 6.34326L101.774 7.71012L102.539 7.95864L103.304 7.83438L104.07 9.44976L104.835 10.9409L105.6 7.95864L106.365 7.21308L107.13 8.7042L107.896 7.95864L108.661 5.22493L109.426 3.73381L110.191 3.85807L110.957 3.23677L111.722 4.72789L112.487 2.61547L113.252 3.85807L114.017 2.61547L114.783 2.73973L115.548 3.73381L116.313 3.85807L117.078 5.5977L117.843 8.45568L118.609 8.82846L119.374 8.95272L120.139 8.82846L120.904 9.9468L121.67 9.82254L122.435 10.5681L123.2 8.57994L123.965 10.4438L124.73 12.1835L125.496 12.3077L126.261 10.8166L127.791 10.5681L128.557 9.69828L129.322 8.20716L130.087 7.58586L130.852 7.95864L131.617 6.71604L132.383 6.96456H133.148L133.913 6.46752L134.678 7.33734L135.443 7.21308L136.209 9.44976L136.974 10.0711L137.739 10.1953L138.504 10.9409L139.27 11.0651L140.035 10.9409L140.8 9.20124L141.565 9.69828L142.33 11.0651L143.096 10.9409L143.861 11.0651L144.626 11.5622L145.391 11.6864L146.157 11.5622L146.922 10.5681L147.687 10.4438H148.452L149.217 10.8166L149.983 10.9409L150.748 10.3196L151.513 12.6805L152.278 10.1953L153.043 10.3196L153.809 10.1953L154.574 11.6864L155.339 11.5622L156.104 11.6864L156.87 11.5622L157.635 11.6864L158.4 10.8166L159.165 9.44976L159.93 11.3137L160.696 9.07698L161.461 6.96456L162.226 7.08882L162.991 6.8403L163.757 8.95272L164.522 10.3196L165.287 10.4438L166.052 10.3196L166.817 10.4438L167.583 8.0829L168.348 5.97048L169.113 4.72789L169.878 10.4438L170.643 9.9468L171.409 10.0711L172.174 10.5681L172.939 10.6924L173.704 9.69828H174.47L175.235 9.57402L176 9.69828L176.765 10.6924L177.53 10.8166L178.296 12.1835L179.061 11.3137L179.826 11.1894L180.591 12.432L181.357 12.1835L182.122 9.69828L182.887 9.57402L183.652 9.69828H184.417L185.183 9.82254L185.948 9.69828L186.713 9.82254L187.478 11.5622L188.243 11.6864L189.009 11.5622L189.774 11.6864L190.539 11.5622L191.304 11.6864L192.07 11.5622L192.835 11.6864L193.6 9.82254L194.365 10.0711H195.13L195.896 10.1953L196.661 10.0711L197.426 10.1953L198.191 11.5622L198.957 11.6864L199.722 11.5622L200.487 11.6864L201.252 10.3196L202.017 10.4438L202.783 10.3196L203.548 14.4202L204.313 14.2959L205.078 14.4202L205.843 14.6687L206.609 15.5385L207.374 14.2959L208.139 14.4202L208.904 15.6628L209.67 11.0651L210.435 11.5622L211.2 9.69828L211.965 9.57402L212.73 9.69828L213.496 8.0829L214.261 8.20716L215.026 8.0829L215.791 5.34918L216.557 6.46752L217.322 7.21308L218.087 9.82254L218.852 9.9468L219.617 9.44976L220.383 9.57402L221.148 10.3196L221.913 10.5681L222.678 10.3196L223.443 9.44976L224.209 10.5681L224.974 10.6924L225.739 9.44976L226.504 10.1953L227.27 10.0711L228.035 11.5622L228.8 11.1894L229.565 9.69828L230.33 9.44976L231.096 9.57402L231.861 10.6924L232.626 10.8166L233.391 10.6924L234.157 12.6805L234.922 12.5563L235.687 12.6805L236.452 12.5563L237.217 10.6924L237.983 10.5681L238.748 10.3196L239.513 10.1953L240.278 10.3196L241.043 9.57402H241.809L242.574 9.3255L243.339 9.82254L244.104 9.69828L244.87 9.3255L245.635 9.69828L246.4 9.82254L247.165 10.5681L247.93 10.6924L248.696 9.69828L249.461 9.82254L250.226 10.5681L250.991 9.9468L251.757 10.6924L252.522 10.8166L253.287 10.6924L254.052 9.44976L254.817 9.07698L255.583 11.935L256.348 10.4438L257.113 10.8166L257.878 9.07698L258.643 9.20124L259.409 10.1953L260.174 18.1361L260.939 16.3965H261.704L262.47 14.5326L263.235 16.0237L264 16.645L264.765 15.2781L265.53 16.645H266.296L267.061 16.2722L267.826 17.2663L268.591 16.7692L269.357 19.1302L270.122 19.0059L270.887 20L271.652 17.0178L272.417 17.7633L273.183 16.8935L273.948 17.8876L275.478 17.3905L276.243 11.6124L277.009 11.4881L277.774 13.1035L278.539 14.5946L279.304 11.6124L280.07 10.8668L280.835 12.3579L281.6 11.6124L282.365 8.87865L283.13 7.38754L283.896 7.5118L284.661 6.8905L285.426 8.38162L286.191 6.2692L286.957 7.5118L287.722 6.2692L288.487 6.39346L289.252 7.38754L290.017 7.5118L290.783 9.25144L291.548 12.1094L292.313 12.4822L293.078 12.6064L293.843 12.4822L294.609 13.6005L295.374 13.4763L296.139 14.2218L296.904 12.2337L297.67 14.0976L298.435 15.8372L299.2 15.9615L299.965 14.4703L301.496 14.2218L302.261 13.352L303.026 11.8609L303.791 11.2396L304.557 11.6124L305.322 10.3698L306.087 10.6183H306.852L307.617 10.1213L308.383 10.9911L309.148 10.8668L309.913 13.1035L310.678 13.7248L311.443 13.849L312.209 14.5946L312.974 14.7189L313.739 14.5946L314.504 12.855L315.27 13.352L316.035 14.7189L316.8 14.5946L317.565 14.7189L318.33 15.2159L319.096 15.3402L319.861 15.2159L320.626 14.2218L321.391 14.0976H322.157L322.922 14.4703L323.687 14.5946L324.452 13.9733L325.217 16.3342L325.983 13.849L326.748 13.9733L327.513 13.849L328.278 15.3402L329.043 15.2159L329.809 15.3402L330.574 15.2159L331.339 15.3402L332.104 14.4703L332.87 13.1035L333.635 14.9674L334.4 12.7307L335.165 10.6183L335.93 10.7426L336.696 10.494L337.461 12.6064L338.226 13.9733L338.991 14.0976L339.757 13.9733L340.522 14.0976L341.287 11.7366L342.052 9.62421L342.817 8.38162L343.583 14.0976L344.348 13.6005L345.113 13.7248L345.878 14.2218L346.643 14.3461L347.409 13.352H348.174L348.939 13.2277L349.704 13.352L350.47 14.3461L351.235 14.4703L352 15.8372"
    stroke="#616D8D" stroke-linejoin="round" />
</svg>